<svg width="141" height="42" viewBox="0 0 141 42" fill="none" xmlns="http://www.w3.org/2000/svg">
<g clip-path="url(#clip0_2007_6190)">
<path d="M32.7918 5.59913L18.3099 1.25961C18.0829 1.18392 17.8558 1.15869 17.6287 1.15869C17.4016 1.15869 17.1746 1.18392 16.9475 1.25961L2.44039 5.59913C1.4312 5.90189 0.75 6.83539 0.75 7.89504V23.8403C0.75 26.2119 1.6835 28.6087 3.52527 30.9551C4.86245 32.6707 6.70423 34.3611 8.9749 36.0262C12.7594 38.751 16.4934 40.4414 16.6448 40.5171C16.9475 40.6433 17.2755 40.719 17.6287 40.719C17.9819 40.719 18.2847 40.6433 18.6127 40.5171C18.7641 40.4414 22.4981 38.751 26.2825 36.0262C28.5532 34.3611 30.395 32.6707 31.7322 30.9551C33.5739 28.6087 34.5074 26.2119 34.5074 23.8403V7.89504C34.5074 6.83539 33.8262 5.90189 32.817 5.59913H32.7918ZM33.1955 23.8403C33.1955 25.9091 32.3629 28.0284 30.6977 30.1477C29.4362 31.7624 27.6954 33.3771 25.5004 34.9666C21.8421 37.6157 18.209 39.2556 18.0576 39.3313C17.9062 39.3818 17.7549 39.4323 17.6035 39.4323C17.4521 39.4323 17.3007 39.407 17.1494 39.3313C16.998 39.2556 13.3901 37.6409 9.70657 34.9666C7.51158 33.3771 5.77072 31.7624 4.50924 30.1477C2.84407 28.0284 2.01149 25.9091 2.01149 23.8403V7.89504C2.01149 7.41567 2.31425 6.98677 2.79361 6.86062L17.3007 2.5211C17.5026 2.47064 17.7296 2.47064 17.9315 2.5211L32.4134 6.86062C32.8675 6.98677 33.1955 7.41567 33.1955 7.89504V23.8403Z" fill="#F4B147"/>
<path d="M41.8496 13.4956H43.8175V27.5738H41.8496V13.4956Z" fill="black"/>
<path d="M43.7923 13.4956H41.8496V27.5738H43.7923V13.4956Z" fill="black"/>
<mask id="mask0_2007_6190" style="mask-type:luminance" maskUnits="userSpaceOnUse" x="41" y="13" width="3" height="15">
<path d="M43.7923 13.4956H41.8496V27.5738H43.7923V13.4956Z" fill="black"/>
</mask>
<g mask="url(#mask0_2007_6190)">
<path d="M39.9824 27.2712L41.8999 13.2183L45.7096 13.7229L43.7669 27.8011L39.9824 27.2712Z" fill="black"/>
</g>
<path d="M41.9004 25.6313H49.4945V27.5993H41.9004V25.6313Z" fill="black"/>
<path d="M49.4438 25.6313H41.8496V27.574H49.4438V25.6313Z" fill="black"/>
<mask id="mask1_2007_6190" style="mask-type:luminance" maskUnits="userSpaceOnUse" x="41" y="25" width="9" height="3">
<path d="M49.4438 25.6313H41.8496V27.574H49.4438V25.6313Z" fill="black"/>
</mask>
<g mask="url(#mask1_2007_6190)">
<path d="M41.623 27.5741L42.0267 24.6475L49.747 25.7071L49.3434 28.6338L41.623 27.5741Z" fill="black"/>
</g>
<path d="M80.7031 14.1772H91.6276V16.1199H80.7031V14.1772Z" fill="black"/>
<path d="M91.6276 14.1519H80.7031V16.0945H91.6276V14.1519Z" fill="black"/>
<mask id="mask2_2007_6190" style="mask-type:luminance" maskUnits="userSpaceOnUse" x="80" y="14" width="12" height="3">
<path d="M91.6276 14.1519H80.7031V16.0945H91.6276V14.1519Z" fill="black"/>
</mask>
<g mask="url(#mask2_2007_6190)">
<path d="M80.4512 16.0947L80.9053 12.7139L91.9055 14.2277L91.4514 17.6084L80.4512 16.0947Z" fill="black"/>
</g>
<path fill-rule="evenodd" clip-rule="evenodd" d="M54.641 17.6841C57.5424 17.6841 59.7374 19.9295 59.7374 22.73C59.7374 25.5305 57.5424 27.8012 54.641 27.8012C51.7396 27.8012 49.4941 25.5305 49.4941 22.73C49.4941 19.9295 51.7396 17.6841 54.641 17.6841ZM54.641 25.9342C56.4323 25.9342 57.7947 24.5214 57.7947 22.7553C57.7947 20.9892 56.4323 19.5006 54.641 19.5006C52.8497 19.5006 51.4116 20.964 51.4116 22.7553C51.4116 24.5466 52.8245 25.9342 54.641 25.9342Z" fill="black"/>
<path d="M54.6156 17.6841C57.517 17.6841 59.7373 19.9295 59.7373 22.73C59.7373 25.5305 57.5423 27.8012 54.6156 27.8012C51.689 27.8012 49.4688 25.5305 49.4688 22.73C49.4688 19.9295 51.7142 17.6841 54.6156 17.6841ZM54.6156 25.9342C56.4069 25.9342 57.7693 24.5214 57.7693 22.7553C57.7693 20.9892 56.4069 19.5259 54.6156 19.5259C52.8243 19.5259 51.4367 20.9892 51.4367 22.7553C51.4367 24.5214 52.8495 25.9342 54.6156 25.9342Z" fill="black"/>
<mask id="mask3_2007_6190" style="mask-type:luminance" maskUnits="userSpaceOnUse" x="49" y="17" width="11" height="11">
<path d="M54.6156 17.6841C57.517 17.6841 59.7373 19.9295 59.7373 22.73C59.7373 25.5305 57.5423 27.8012 54.6156 27.8012C51.689 27.8012 49.4688 25.5305 49.4688 22.73C49.4688 19.9295 51.7142 17.6841 54.6156 17.6841ZM54.6156 25.9342C56.4069 25.9342 57.7693 24.5214 57.7693 22.7553C57.7693 20.9892 56.4069 19.5259 54.6156 19.5259C52.8243 19.5259 51.4367 20.9892 51.4367 22.7553C51.4367 24.5214 52.8495 25.9342 54.6156 25.9342Z" fill="black"/>
</mask>
<g mask="url(#mask3_2007_6190)">
<path d="M48.1309 27.5998L49.6699 16.2969L61.1242 17.8611L59.5599 29.1641L48.1309 27.5998Z" fill="black"/>
</g>
<path d="M66.0207 17.6841C63.2707 17.6841 61 19.9548 61 22.73C61 25.5053 63.2707 27.8264 66.046 27.776C67.812 27.776 69.4267 27.0191 70.335 25.253L68.7203 24.37C68.14 25.4296 67.1813 25.9594 66.046 25.9594C64.3556 25.9594 62.9679 24.4961 62.9679 22.73C62.9679 20.964 64.3556 19.5511 66.046 19.5511C67.7363 19.5511 68.1653 20.0809 68.7203 21.1406L70.335 20.2323C69.4267 18.4914 67.812 17.7093 66.046 17.7093H66.0207V17.6841Z" fill="black"/>
<path d="M65.9955 17.6841C63.2455 17.6841 61 19.9548 61 22.73C61 25.5053 63.2454 27.8264 66.046 27.776C67.812 27.776 69.4267 26.9686 70.3098 25.253L68.6951 24.37C68.1148 25.4296 67.1561 25.9594 66.0207 25.9594C64.3303 25.9594 62.9427 24.4961 62.9427 22.73C62.9427 20.964 64.3303 19.5511 66.0207 19.5511C67.7111 19.5511 68.14 20.0809 68.6951 21.1406L70.3098 20.2323C69.4267 18.4914 67.812 17.7093 66.046 17.7093H65.9955V17.6841Z" fill="black"/>
<mask id="mask4_2007_6190" style="mask-type:luminance" maskUnits="userSpaceOnUse" x="61" y="17" width="10" height="11">
<path d="M65.9955 17.6841C63.2455 17.6841 61 19.9548 61 22.73C61 25.5053 63.2454 27.8264 66.046 27.776C67.812 27.776 69.4267 26.9686 70.3098 25.253L68.6951 24.37C68.1148 25.4296 67.1561 25.9594 66.0207 25.9594C64.3303 25.9594 62.9427 24.4961 62.9427 22.73C62.9427 20.964 64.3303 19.5511 66.0207 19.5511C67.7111 19.5511 68.14 20.0809 68.6951 21.1406L70.3098 20.2323C69.4267 18.4914 67.812 17.7093 66.046 17.7093H65.9955V17.6841Z" fill="black"/>
</mask>
<g mask="url(#mask4_2007_6190)">
<path d="M59.6367 27.6249L61.1757 16.4229L71.6966 17.8357L70.1575 29.0377L59.6367 27.6249Z" fill="black"/>
</g>
<path d="M78.812 17.911L75.7339 21.2665C75.7087 21.2665 75.6835 21.2665 75.6835 21.317C75.5069 21.5188 75.3303 21.7207 75.2293 21.9225C75.1032 22.1496 75.0527 22.4271 75.0527 22.6794C75.0527 22.9317 75.1032 23.2092 75.2293 23.4363C75.2546 23.512 75.3555 23.6381 75.4059 23.7138C75.4816 23.8652 75.5826 24.0166 75.7087 24.168L78.7867 27.5235H81.1836L78.0551 24.0418L77.0459 22.9317C76.9197 22.856 76.844 22.7551 76.844 22.6794C76.844 22.6037 76.9197 22.4776 77.0459 22.4019L78.0803 21.2918L81.2088 17.8857H78.812V17.911Z" fill="black"/>
<path d="M78.812 17.911L75.7339 21.2665C75.7339 21.2665 75.7087 21.2665 75.6835 21.317C75.5069 21.4936 75.3303 21.6954 75.2293 21.9225C75.1284 22.1496 75.0527 22.4019 75.0527 22.6794C75.0527 22.9569 75.1032 23.2092 75.2293 23.4363C75.2546 23.512 75.3555 23.6381 75.4059 23.7138C75.4816 23.8652 75.6078 23.9913 75.7087 24.1427L78.7867 27.4983H81.1836L78.0551 24.0418L77.0459 22.9317C76.9197 22.856 76.8693 22.7551 76.8693 22.6542C76.8693 22.5533 76.9197 22.4776 77.0459 22.3766L78.0803 21.2665L81.2088 17.8857H78.812V17.911Z" fill="black"/>
<mask id="mask5_2007_6190" style="mask-type:luminance" maskUnits="userSpaceOnUse" x="75" y="17" width="7" height="11">
<path d="M78.812 17.911L75.7339 21.2665C75.7339 21.2665 75.7087 21.2665 75.6835 21.317C75.5069 21.4936 75.3303 21.6954 75.2293 21.9225C75.1284 22.1496 75.0527 22.4019 75.0527 22.6794C75.0527 22.9569 75.1032 23.2092 75.2293 23.4363C75.2546 23.512 75.3555 23.6381 75.4059 23.7138C75.4816 23.8652 75.6078 23.9913 75.7087 24.1427L78.7867 27.4983H81.1836L78.0551 24.0418L77.0459 22.9317C76.9197 22.856 76.8693 22.7551 76.8693 22.6542C76.8693 22.5533 76.9197 22.4776 77.0459 22.3766L78.0803 21.2665L81.2088 17.8857H78.812V17.911Z" fill="black"/>
</mask>
<g mask="url(#mask5_2007_6190)">
<path d="M73.7402 27.372L75.1531 17.1035L82.4697 18.1127L81.0569 28.3812L73.7402 27.372Z" fill="black"/>
</g>
<path d="M72.4023 13.4961H74.3703V27.5743H72.4023V13.4961Z" fill="black"/>
<path d="M74.3703 13.4961H72.4023V27.5743H74.3703V13.4961Z" fill="black"/>
<mask id="mask6_2007_6190" style="mask-type:luminance" maskUnits="userSpaceOnUse" x="72" y="13" width="3" height="15">
<path d="M74.3703 13.4961H72.4023V27.5743H74.3703V13.4961Z" fill="black"/>
</mask>
<g mask="url(#mask6_2007_6190)">
<path d="M70.4844 27.2716L72.4271 13.1934L76.2368 13.698L74.2941 27.8014L70.4844 27.2716Z" fill="black"/>
</g>
<path d="M85.2207 14.3032H87.1634V27.5741H85.2207V14.3032Z" fill="black"/>
<path d="M87.1126 14.3032H85.1699V27.5489H87.1126V14.3032Z" fill="black"/>
<mask id="mask7_2007_6190" style="mask-type:luminance" maskUnits="userSpaceOnUse" x="85" y="14" width="3" height="14">
<path d="M87.1126 14.3032H85.1699V27.5489H87.1126V14.3032Z" fill="black"/>
</mask>
<g mask="url(#mask7_2007_6190)">
<path d="M83.3789 27.3216L85.2207 14.0508L88.9042 14.5301L87.0877 27.8262L83.3789 27.3216Z" fill="black"/>
</g>
<path d="M93.3184 13.4959V27.5741H95.2863V22.7805C95.2863 20.8883 96.4721 19.5258 98.1877 19.5258C99.9033 19.5258 100.938 21.0144 100.938 22.7048V27.5489H102.906V22.503C102.906 19.5511 101.316 17.6588 98.4652 17.6588C95.6143 17.6588 96.0179 18.1634 95.2863 18.9708V13.4707H93.3184V13.4959Z" fill="black"/>
<path d="M93.3184 13.4959V27.5741H95.2611V22.7805C95.2611 20.8883 96.4469 19.5258 98.1625 19.5258C99.8781 19.5258 100.913 21.0144 100.913 22.7048V27.5489H102.855V22.503C102.855 19.5763 101.266 17.6588 98.44 17.6588C95.6143 17.6588 95.9927 18.1634 95.2611 18.9708V13.4707H93.3184V13.4959Z" fill="black"/>
<mask id="mask8_2007_6190" style="mask-type:luminance" maskUnits="userSpaceOnUse" x="93" y="13" width="10" height="15">
<path d="M93.3184 13.4959V27.5741H95.2611V22.7805C95.2611 20.8883 96.4469 19.5258 98.1625 19.5258C99.8781 19.5258 100.913 21.0144 100.913 22.7048V27.5489H102.855V22.503C102.855 19.5763 101.266 17.6588 98.44 17.6588C95.6143 17.6588 95.9927 18.1634 95.2611 18.9708V13.4707H93.3184V13.4959Z" fill="black"/>
</mask>
<g mask="url(#mask8_2007_6190)">
<path d="M91.4512 27.2715L93.4948 12.1841L104.798 13.7483L102.729 28.8357L91.4512 27.2715Z" fill="black"/>
</g>
<path d="M105.379 21.8216V27.574H107.322V21.8973C107.322 20.4844 108.129 19.6014 109.441 19.6014C110.753 19.6014 110.526 19.7528 110.98 20.0303V18.0876C110.501 17.8605 109.87 17.7344 109.239 17.7344C106.741 17.7344 105.404 19.4752 105.404 21.7964" fill="black"/>
<path d="M105.379 21.8216V27.574H107.322V21.8973C107.322 20.4844 108.129 19.6014 109.39 19.6014C110.652 19.6014 110.475 19.7528 110.955 20.0303V18.0876C110.475 17.8605 109.845 17.7344 109.214 17.7344C106.716 17.7344 105.379 19.4752 105.379 21.8468C105.379 21.83 105.379 21.8216 105.379 21.8216Z" fill="black"/>
<mask id="mask9_2007_6190" style="mask-type:luminance" maskUnits="userSpaceOnUse" x="105" y="17" width="6" height="11">
<path d="M105.379 21.8216V27.574H107.322V21.8973C107.322 20.4844 108.129 19.6014 109.39 19.6014C110.652 19.6014 110.475 19.7528 110.955 20.0303V18.0876C110.475 17.8605 109.845 17.7344 109.214 17.7344C106.716 17.7344 105.379 19.4752 105.379 21.8468C105.379 21.83 105.379 21.8216 105.379 21.8216Z" fill="black"/>
</mask>
<g mask="url(#mask9_2007_6190)">
<path d="M104.041 27.3722L105.454 16.9775L112.266 17.8858L110.853 28.3057L104.041 27.3722Z" fill="black"/>
</g>
<path fill-rule="evenodd" clip-rule="evenodd" d="M116.328 17.6587C119.23 17.6587 121.046 19.778 121.046 22.4523V23.2597H113.326C113.553 24.8996 114.815 26.0854 116.556 26.0854C118.296 26.0854 118.776 25.5808 119.356 24.496L120.87 25.2529C120.012 26.8928 118.473 27.7758 116.581 27.7758C113.679 27.7758 111.484 25.6565 111.484 22.7046C111.484 19.7528 113.452 17.6587 116.354 17.6587H116.328ZM113.427 21.9982H119.104C119.053 20.4592 117.918 19.3995 116.303 19.3995C114.689 19.3995 113.629 20.5349 113.427 21.9982Z" fill="black"/>
<path d="M116.328 17.6587C119.23 17.6587 121.046 19.778 121.046 22.4523V23.2597H113.326C113.553 24.8996 114.814 26.0854 116.505 26.0854C118.195 26.0854 118.75 25.5808 119.331 24.5212L120.819 25.2781C119.961 26.918 118.422 27.8011 116.555 27.8011C113.629 27.8011 111.434 25.6565 111.434 22.7046C111.434 19.7528 113.402 17.6587 116.303 17.6587H116.328ZM113.427 21.9982H119.129C119.053 20.4592 117.943 19.3995 116.328 19.3995C114.713 19.3995 113.629 20.5349 113.452 21.9982H113.427Z" fill="black"/>
<mask id="mask10_2007_6190" style="mask-type:luminance" maskUnits="userSpaceOnUse" x="111" y="17" width="11" height="11">
<path d="M116.328 17.6587C119.23 17.6587 121.046 19.778 121.046 22.4523V23.2597H113.326C113.553 24.8996 114.814 26.0854 116.505 26.0854C118.195 26.0854 118.75 25.5808 119.331 24.5212L120.819 25.2781C119.961 26.918 118.422 27.8011 116.555 27.8011C113.629 27.8011 111.434 25.6565 111.434 22.7046C111.434 19.7528 113.402 17.6587 116.303 17.6587H116.328ZM113.427 21.9982H119.129C119.053 20.4592 117.943 19.3995 116.328 19.3995C114.713 19.3995 113.629 20.5349 113.452 21.9982H113.427Z" fill="black"/>
</mask>
<g mask="url(#mask10_2007_6190)">
<path d="M110.096 27.5739L111.635 16.3467L122.408 17.8352L120.869 29.0625L110.096 27.5739Z" fill="black"/>
</g>
<path fill-rule="evenodd" clip-rule="evenodd" d="M127.581 17.6841C130.482 17.6841 132.702 19.8538 132.702 22.73V27.5742H130.861V25.8585C130.154 27.0443 128.867 27.8012 127.303 27.8012C124.503 27.8012 122.459 25.5305 122.459 22.73C122.459 19.9295 124.679 17.6841 127.581 17.6841ZM127.581 25.9342C129.372 25.9342 130.76 24.5214 130.76 22.7553C130.76 20.9892 129.372 19.5006 127.581 19.5006C125.789 19.5006 124.402 20.964 124.402 22.7553C124.402 24.5466 125.789 25.9342 127.581 25.9342Z" fill="black"/>
<path d="M127.58 17.6841C130.482 17.6841 132.702 19.8538 132.702 22.73V27.5742H130.86V25.8838C130.129 27.0443 128.867 27.8265 127.278 27.8265C124.477 27.8265 122.434 25.5558 122.434 22.7553C122.434 19.9548 124.654 17.7093 127.555 17.7093H127.58C127.58 17.6925 127.58 17.6841 127.58 17.6841ZM127.58 25.9342C129.372 25.9342 130.759 24.5214 130.759 22.7553C130.759 20.9892 129.372 19.5259 127.58 19.5259C125.789 19.5259 124.402 20.9892 124.402 22.7553C124.402 24.5214 125.764 25.9342 127.58 25.9342Z" fill="black"/>
<mask id="mask11_2007_6190" style="mask-type:luminance" maskUnits="userSpaceOnUse" x="122" y="17" width="11" height="11">
<path d="M127.58 17.6841C130.482 17.6841 132.702 19.8538 132.702 22.73V27.5742H130.86V25.8838C130.129 27.0443 128.867 27.8265 127.278 27.8265C124.477 27.8265 122.434 25.5558 122.434 22.7553C122.434 19.9548 124.654 17.7093 127.555 17.7093H127.58C127.58 17.6925 127.58 17.6841 127.58 17.6841ZM127.58 25.9342C129.372 25.9342 130.759 24.5214 130.759 22.7553C130.759 20.9892 129.372 19.5259 127.58 19.5259C125.789 19.5259 124.402 20.9892 124.402 22.7553C124.402 24.5214 125.764 25.9342 127.58 25.9342Z" fill="black"/>
</mask>
<g mask="url(#mask11_2007_6190)">
<path d="M121.07 27.5998L122.635 16.2969L134.089 17.8611L132.525 29.1641L121.07 27.5998Z" fill="black"/>
</g>
<path d="M135.099 15.4385V17.911H133.182V19.6266H135.099V24.0923C135.099 26.3125 136.386 27.8263 138.783 27.8263C141.179 27.8263 140.271 27.5992 140.776 27.246V25.4799C140.296 25.7827 139.615 26.0602 138.984 26.0602C137.824 26.0602 137.067 25.3033 137.067 24.0418V19.6266H140.776V17.9362H137.067V15.4385H135.099Z" fill="black"/>
<path d="M135.099 15.4385V17.9362H133.182V19.6266H135.099V24.0923C135.099 26.2873 136.386 27.8263 138.783 27.8263C141.179 27.8263 140.271 27.5992 140.751 27.2965V25.5052C140.271 25.8584 139.59 26.0854 138.959 26.0854C137.799 26.0854 137.042 25.3538 137.042 24.0923V19.6771H140.751V17.9867H137.042V15.4889H135.099C135.099 15.4721 135.099 15.4637 135.099 15.4637V15.4385Z" fill="black"/>
<mask id="mask12_2007_6190" style="mask-type:luminance" maskUnits="userSpaceOnUse" x="133" y="15" width="8" height="13">
<path d="M135.099 15.4385V17.9362H133.182V19.6266H135.099V24.0923C135.099 26.2873 136.386 27.8263 138.783 27.8263C141.179 27.8263 140.271 27.5992 140.751 27.2965V25.5052C140.271 25.8584 139.59 26.0854 138.959 26.0854C137.799 26.0854 137.042 25.3538 137.042 24.0923V19.6771H140.751V17.9867H137.042V15.4889H135.099C135.099 15.4721 135.099 15.4637 135.099 15.4637V15.4385Z" fill="black"/>
</mask>
<g mask="url(#mask12_2007_6190)">
<path d="M131.516 27.5742L133.332 14.4043L142.415 15.6406L140.598 28.8357L131.516 27.5742Z" fill="black"/>
</g>
<path d="M17.6297 38.07C17.0494 37.7924 13.7695 36.2534 10.5149 33.8818C8.42079 32.368 6.78086 30.829 5.56983 29.3152C4.1065 27.4482 3.34961 25.5812 3.34961 23.8152V8.07178L17.6044 3.78271L31.8592 8.07178V23.8404C31.8592 25.6065 31.1024 27.4735 29.639 29.3405C28.4532 30.8543 26.7881 32.3933 24.694 33.9071C21.3889 36.3039 18.1595 37.8177 17.5792 38.0952L17.6297 38.07Z" fill="#F4B147"/>
<path d="M13.3908 23.0585C13.6431 25.8337 15.5101 29.3911 17.251 31.4347C17.4023 31.6114 17.6799 31.6366 17.8565 31.46C18.0331 31.3086 18.0583 31.0311 17.9069 30.8545C16.267 28.937 14.4757 25.5814 14.2486 22.9575C13.9963 20.1823 15.712 18.6937 17.3771 18.4666C17.8565 18.4162 18.3106 18.4414 18.7395 18.5423C18.9666 18.5928 19.1684 18.6685 19.3703 18.7694C20.5308 19.2992 21.3634 20.4093 21.5653 21.6961C21.868 23.6387 22.6754 25.1778 23.9369 26.2879C24.1135 26.4645 24.391 26.414 24.5424 26.2374C24.719 26.0608 24.6685 25.7833 24.4919 25.6319C23.3818 24.6479 22.6754 23.2855 22.3978 21.5699C22.1203 19.9804 21.1111 18.618 19.7235 17.9873C18.9666 17.6341 18.1088 17.5079 17.2762 17.6088C15.2074 17.8864 13.1133 19.6777 13.416 23.0332L13.3908 23.0585Z" fill="#071030"/>
<path d="M21.1616 29.921C21.313 30.0724 21.5905 30.0724 21.7671 29.921C21.868 29.8453 21.8933 29.7444 21.8933 29.6182C21.8933 29.4921 21.8428 29.3912 21.7419 29.3155C19.9758 27.6756 18.5377 24.0425 18.2854 22.2764C18.2602 22.0998 18.134 21.9484 17.9574 21.8979C17.8817 21.8979 17.8565 21.8727 17.806 21.8979C17.7051 21.8979 17.6042 21.9736 17.5285 22.0745C17.4528 22.1502 17.4276 22.2764 17.4528 22.3773C17.6799 24.2948 19.1432 28.1045 21.1616 29.9462V29.921Z" fill="#071030"/>
<path d="M19.4705 30.905C19.6219 31.0312 19.9247 31.0312 20.076 30.8546C20.177 30.7789 20.2022 30.6779 20.2022 30.5518C20.2022 30.4256 20.1517 30.3247 20.0508 30.249C18.4613 28.7857 16.3925 25.1526 16.2159 22.7558C16.0897 21.1916 16.8214 20.5356 17.6035 20.4347C17.8054 20.4347 18.0072 20.4347 18.209 20.4599C18.9155 20.6365 19.4201 21.1916 19.5462 21.9989C19.7733 23.4118 20.6816 26.515 22.5233 28.2054C22.6747 28.3568 22.9775 28.3568 23.1288 28.2054C23.3055 28.0288 23.2802 27.7513 23.1288 27.5999C21.5898 26.1618 20.6816 23.3865 20.4293 21.898C20.2274 20.7374 19.521 19.9048 18.4361 19.6525C18.1334 19.5768 17.7801 19.5516 17.5026 19.5768C16.3168 19.7282 15.1815 20.8131 15.3581 22.8567C15.5851 25.4302 17.7549 29.3155 19.4705 30.8798V30.905Z" fill="#071030"/>
<path d="M11.423 23.21C11.5996 25.1023 12.3817 27.3729 13.6432 29.6184C13.7694 29.8455 14.0217 29.8959 14.2235 29.795C14.4506 29.6941 14.5263 29.4166 14.4001 29.2147C13.2143 27.0702 12.4574 24.9257 12.3061 23.1596C11.9781 19.249 14.501 16.8774 17.1502 16.5241C17.8566 16.4232 18.563 16.4737 19.2442 16.6503C19.5722 16.726 19.9002 16.8269 20.2282 17.0035C21.9943 17.8109 23.1549 19.1733 23.5333 20.8889V20.9394C23.7099 21.7467 23.937 22.7559 24.7696 23.2605C24.9462 23.3866 25.2237 23.3362 25.3498 23.1091C25.476 22.9325 25.4255 22.655 25.1985 22.5288C24.6686 22.2261 24.5173 21.4944 24.3659 20.788V20.7123C23.9117 18.7444 22.5746 17.1801 20.5562 16.2214C19.4461 15.7168 18.2351 15.5402 17.024 15.6916C13.946 16.07 11.0193 18.7948 11.4482 23.2353L11.423 23.21Z" fill="#071030"/>
<path d="M9.40333 23.3611C9.47902 24.1433 9.63039 24.9759 9.85746 25.8337C9.90792 26.0607 10.1854 26.2121 10.4125 26.1364C10.6396 26.086 10.7657 25.8337 10.7153 25.6066C10.5134 24.7992 10.3621 24.0424 10.2864 23.2855C9.83223 18.189 13.3392 14.9596 16.8713 14.5055C17.8048 14.3794 18.7383 14.455 19.6718 14.6821C20.126 14.8083 20.5549 14.9596 20.9838 15.1615C22.876 16.0445 24.2384 17.5331 24.9449 19.6524C25.0458 19.8794 25.2981 20.0056 25.4999 19.9047C25.6008 19.8542 25.7018 19.7785 25.7522 19.6776C25.8027 19.5767 25.8027 19.4505 25.7522 19.3496C24.9701 17.0537 23.4311 15.3129 21.3118 14.3541C20.8324 14.1271 20.3278 13.9504 19.8232 13.8495C18.814 13.5972 17.7292 13.5468 16.6947 13.6729C12.7841 14.1523 8.8735 17.7097 9.3781 23.3611H9.40333Z" fill="#071030"/>
<path d="M23.2547 11.377C23.3556 11.1499 23.2547 10.8977 23.0276 10.7967C22.1446 10.4183 21.2868 10.1155 20.4289 9.88846C15.3578 8.60174 12.1284 10.7463 10.9678 11.705C10.8669 11.7807 10.8164 11.8816 10.8164 12.0078C10.8164 12.1339 10.8669 12.2348 10.9426 12.3357C11.0939 12.5124 11.3715 12.5376 11.5481 12.3862C12.6077 11.5032 15.5848 9.56047 20.2271 10.721C21.0092 10.9229 21.867 11.2004 22.6744 11.5789C22.8762 11.6798 23.1285 11.5789 23.2295 11.3518L23.2547 11.377Z" fill="#071030"/>
<path d="M8.69743 17.3564C8.74789 17.4574 8.82358 17.5583 8.92449 17.6087H9.02541C9.20202 17.6844 9.42909 17.6087 9.50478 17.4069C10.8924 14.7325 13.2892 13.0169 16.1402 12.588C17.4017 12.4114 18.6632 12.4619 19.9247 12.7646C21.6151 13.1935 23.1541 14.0513 24.3903 15.3128C24.567 15.4894 24.8445 15.4894 25.0211 15.3128C25.1977 15.1362 25.1977 14.8587 25.0211 14.6821C23.6839 13.3449 21.9935 12.3862 20.1265 11.9068C18.7641 11.5536 17.4017 11.5031 16.0141 11.705C12.8351 12.1843 10.2617 14.0513 8.72266 16.978C8.6722 17.0789 8.64697 17.2051 8.69743 17.306V17.3564Z" fill="#071030"/>
</g>
<defs>
<clipPath id="clip0_2007_6190">
<rect width="140" height="41.1498" fill="black" transform="translate(0.75 0.855957)"/>
</clipPath>
</defs>
</svg>
